<?xml version="1.0" encoding="UTF-8" standalone="no"?>
<svg
   width="1000px"
   height="1000px"
   viewBox="0 0 1000 1000"
   version="1.1"
   id="svg1"
   sodipodi:docname="9.svg"
   inkscape:version="1.4.4 (dcaf3e7d9e, 2026-05-05)"
   xmlns:inkscape="http://www.inkscape.org/namespaces/inkscape"
   xmlns:sodipodi="http://sodipodi.sourceforge.net/DTD/sodipodi-0.dtd"
   xmlns="http://www.w3.org/2000/svg"
   xmlns:svg="http://www.w3.org/2000/svg">
  <defs
     id="defs1" />
  <sodipodi:namedview
     id="namedview1"
     pagecolor="#ffffff"
     bordercolor="#000000"
     borderopacity="0.25"
     inkscape:showpageshadow="2"
     inkscape:pageopacity="0.0"
     inkscape:pagecheckerboard="0"
     inkscape:deskcolor="#d1d1d1"
     showguides="true"
     inkscape:zoom="0.43219304"
     inkscape:cx="839.90247"
     inkscape:cy="374.83251"
     inkscape:window-width="1920"
     inkscape:window-height="991"
     inkscape:window-x="0"
     inkscape:window-y="0"
     inkscape:window-maximized="1"
     inkscape:current-layer="svg1">
    <sodipodi:guide
       position="82.809129,199.35507"
       orientation="0,-1"
       id="guide1"
       inkscape:locked="false" />
    <sodipodi:guide
       position="134.69988,174.99646"
       orientation="0,-1"
       id="guide2"
       inkscape:locked="false" />
    <sodipodi:guide
       position="304.06094,899.83139"
       orientation="0,-1"
       id="guide3"
       inkscape:locked="false" />
    <sodipodi:guide
       position="183.14782,912.68215"
       orientation="0,-1"
       id="guide4"
       inkscape:locked="false" />
  </sodipodi:namedview>
  <!-- Font metrics: baseline at y=800 (200px up from the bottom); HAP height at y=100 (100px down from the top). -->
  <path
     fill="#000000"
     fill-rule="evenodd"
     d="m 517.25567,87.639077 c 165.99312,0 266.65991,110.025253 266.65991,291.363183 0,209.86297 -115.65972,372.86335 -302.00038,438.0635 -12.85108,4.07502 -25.70216,7.13127 -38.55323,7.13127 -37.48233,0 -61.04264,-21.39381 -61.04264,-56.03138 0,-26.48756 13.92201,-43.80636 40.69509,-57.05014 99.59587,-47.88136 161.70942,-99.83772 194.90805,-181.33791 -36.4114,25.4688 -80.31926,38.71258 -130.65265,38.71258 -133.86541,0 -225.96482,-92.70646 -225.96482,-227.18177 0,-145.68158 102.80864,-253.669333 255.95067,-253.669333 z m -6,93.500193 c -85.62697,2.83403 -123.63094,51.46356 -121.02654,140.14836 2.99048,101.83135 41.52269,148.79613 121.02654,148.79613 85.67386,0 126.95169,-46.82714 128.18569,-145.00038 1.09828,-87.3757 -53.61785,-146.41211 -128.18569,-143.94411 z m -42.01414,655.28277 h 107.09233 c 23.56031,0 38.55323,11.2063 38.55323,28.52508 0,17.31879 -14.99292,28.52506 -38.55323,28.52506 H 469.24153 c -23.56032,0 -38.55324,-11.20627 -38.55324,-28.52506 0,-17.31878 14.99292,-28.52508 38.55324,-28.52508 z"
     id="path1"
     sodipodi:nodetypes="cscssccsscssssssssssss"
     style="stroke-width:1.04451" />
</svg>
